<svg width="18" height="18" viewBox="0 0 18 18" fill="none" xmlns="http://www.w3.org/2000/svg">
<path fill-rule="evenodd" clip-rule="evenodd" d="M2.64279 13.8572C1.61227 12.5105 1 10.8267 1 9C1 4.58172 4.58172 1 9 1C10.8267 1 12.5105 1.61227 13.8572 2.64279L2.64279 13.8572Z" fill="#ffc700"/>
<path fill-rule="evenodd" clip-rule="evenodd" d="M14.9998 9.00006C14.9998 12.3138 12.3135 15.0001 8.99981 15.0001C7.72605 15.0001 6.545 14.6031 5.57359 13.9262L4.14258 15.3573C5.48348 16.3833 7.1585 16.9948 8.97612 17H9.0235C13.4283 16.9873 16.9956 13.4147 16.9998 9.00795V8.99216C16.998 7.16845 16.3861 5.48761 15.357 4.14282L13.926 5.57383C14.6029 6.54524 14.9998 7.7263 14.9998 9.00006Z" fill="#ffc700"/>
</svg>
