<svg width="18" height="18" viewBox="0 0 18 18" fill="none" xmlns="http://www.w3.org/2000/svg">
<path fill-rule="evenodd" clip-rule="evenodd" d="M16 3C16 2.44772 15.5523 2 15 2C14.4477 2 14 2.44772 14 3V14H3C2.44772 14 2 14.4477 2 15C2 15.5523 2.44772 16 3 16H14C15.1046 16 16 15.1046 16 14V3ZM12 3C12 2.44772 11.5523 2 11 2C10.4477 2 10 2.44772 10 3C10 4.67477 9.15255 6.43324 7.79289 7.79289C6.43324 9.15255 4.67477 10 3 10C2.44772 10 2 10.4477 2 11C2 11.5523 2.44772 12 3 12C5.32523 12 7.56676 10.8475 9.20711 9.20711C10.8475 7.56676 12 5.32523 12 3Z" fill="#ffc700"/>
</svg>
