<svg width="18" height="18" viewBox="0 0 18 18" fill="none" xmlns="http://www.w3.org/2000/svg">
<circle cx="9" cy="9" r="7" stroke="#ffc700" stroke-width="2"/>
<path fill-rule="evenodd" clip-rule="evenodd" d="M10.5 5.5C10.5 5.94425 10.3069 6.34339 10 6.61805V7.26756C10.3036 7.4432 10.5568 7.69637 10.7324 8H11.3819C11.6566 7.69313 12.0557 7.5 12.5 7.5C13.3284 7.5 14 8.17157 14 9C14 9.82843 13.3284 10.5 12.5 10.5C12.0557 10.5 11.6566 10.3069 11.3819 10H10.7324C10.5568 10.3036 10.3036 10.5568 10 10.7324V11.3819C10.3069 11.6566 10.5 12.0557 10.5 12.5C10.5 13.3284 9.82843 14 9 14C8.17157 14 7.5 13.3284 7.5 12.5C7.5 12.0557 7.69313 11.6566 8 11.3819V10.7324C7.69637 10.5568 7.4432 10.3036 7.26756 10H6.61805C6.34339 10.3069 5.94425 10.5 5.5 10.5C4.67157 10.5 4 9.82843 4 9C4 8.17157 4.67157 7.5 5.5 7.5C5.94425 7.5 6.34339 7.69313 6.61805 8H7.26756C7.4432 7.69637 7.69637 7.4432 8 7.26756V6.61805C7.69313 6.34339 7.5 5.94425 7.5 5.5C7.5 4.67157 8.17157 4 9 4C9.82843 4 10.5 4.67157 10.5 5.5Z" fill="#ffc700"/>
</svg>
