<svg width="18" height="18" viewBox="0 0 18 18" fill="none" xmlns="http://www.w3.org/2000/svg">
<path fill-rule="evenodd" clip-rule="evenodd" d="M3.83164 3.14613C3.92778 3.05384 4.05468 3 4.18543 3H16.391C16.6141 3 16.7256 3.26918 16.5679 3.42685L14.1568 5.83797C14.0645 5.93026 13.9376 5.9841 13.803 5.9841H1.59741C1.37437 5.9841 1.26285 5.71491 1.42052 5.55725L3.83164 3.14613ZM3.83164 12.1484C3.92393 12.0562 4.05083 12.0023 4.18543 12.0023H16.391C16.6141 12.0023 16.7256 12.2715 16.5679 12.4292L14.1568 14.8403C14.0645 14.9326 13.9376 14.9864 13.803 14.9864H1.59741C1.37437 14.9864 1.26285 14.7172 1.42052 14.5596L3.83164 12.1484ZM13.803 7.47235C13.9376 7.47235 14.0645 7.52619 14.1568 7.61848L16.5679 10.0296C16.7256 10.1873 16.6141 10.4565 16.391 10.4565H4.18543C4.05083 10.4565 3.92393 10.4026 3.83164 10.3103L1.42052 7.8992C1.26285 7.74154 1.37437 7.47235 1.59741 7.47235H13.803Z" fill="#C1C1E3"/>
</svg>
