<svg width="18" height="18" viewBox="0 0 18 18" fill="none" xmlns="http://www.w3.org/2000/svg">
<path fill-rule="evenodd" clip-rule="evenodd" d="M1 5.2388C1 4.30252 1.64954 3.49155 2.56321 3.28708L12.5632 1.0491C13.813 0.769396 15 1.72009 15 3.00082V4.50378C16.1046 4.50378 17 5.39921 17 6.50378V14.5038C17 15.6084 16.1046 16.5038 15 16.5038H3C1.89543 16.5038 1 15.6084 1 14.5038V13.7488V6.50378V5.2388ZM5.9317 4.50378H13V4.23513C13 3.59909 12.414 3.12467 11.7919 3.25702L5.9317 4.50378ZM14 10.5038C14 11.6084 13.1046 12.5038 12 12.5038C10.8954 12.5038 10 11.6084 10 10.5038C10 9.39921 10.8954 8.50378 12 8.50378C13.1046 8.50378 14 9.39921 14 10.5038Z" fill="#C1C1E3"/>
</svg>
